<svg height='100px' width='100px'  fill="#000000" xmlns="http://www.w3.org/2000/svg" xmlns:xlink="http://www.w3.org/1999/xlink" version="1.1" x="0px" y="0px" viewBox="0 0 100 100" enable-background="new 0 0 100 100" xml:space="preserve"><path fill-rule="evenodd" clip-rule="evenodd" d="M59.118,78.785c7.546-3.457,12.819-11.069,12.819-19.873  c0-8.055-4.414-15.111-11.535-19.238c-5.61-3.097-9.031-8.424-9.031-14.524c0-3.327,1.018-6.425,2.758-8.997  c2.9-4.286,7.807-7.113,13.352-7.113s9.949,3.229,13.435,7.081c7.566,8.36,12.958,18.884,12.958,30.967  c0,24.165-19.709,43.874-43.874,43.874S6.126,71.252,6.126,47.086c0-12.083,5.315-22.66,13.301-30.967  c3.742-3.892,8.232-7.081,13.778-7.081c8.873,0,16.11,7.237,16.11,16.11c0,6.655-4.246,12.011-9.906,14.864  c-6.787,3.421-11.003,10.844-11.003,18.899c0,8.242,4.621,15.439,11.243,19.056c1.297-6.71,3.128-13.273,4.215-19.978  c0.541-3.333,1.796-4.475,6.501-4.909h10.217c-5.398,2.241-4.365,5.881-4.114,7.562L59.118,78.785L59.118,78.785z"></path></svg>