<?xml version="1.0" standalone="no"?>
<!DOCTYPE svg PUBLIC "-//W3C//DTD SVG 20010904//EN"
 "http://www.w3.org/TR/2001/REC-SVG-20010904/DTD/svg10.dtd">
<svg version="1.0" xmlns="http://www.w3.org/2000/svg"
 width="700.000000pt" height="700.000000pt" viewBox="0 0 700.000000 700.000000"
 preserveAspectRatio="xMidYMid meet">
<metadata>
Created by potrace 1.14, written by Peter Selinger 2001-2017
</metadata>
<g transform="translate(0.000000,700.000000) scale(0.100000,-0.100000)"
fill="#000000" stroke="none">
<path d="M2248 6365 c-2 -1 -28 -5 -58 -8 -140 -16 -291 -72 -444 -165 -278
-170 -630 -552 -872 -947 -72 -118 -189 -348 -219 -430 -10 -27 -22 -54 -26
-60 -3 -5 -27 -73 -53 -150 -66 -201 -112 -415 -133 -615 -10 -97 -10 -506 0
-590 5 -36 10 -84 13 -107 6 -60 42 -243 65 -338 184 -725 644 -1379 1264
-1795 290 -194 608 -340 930 -425 173 -46 342 -75 540 -92 180 -16 533 -5 686
22 13 2 56 9 94 15 39 6 117 22 175 36 1036 250 1873 1020 2205 2029 77 232
110 386 142 660 10 88 10 508 0 595 -9 71 -11 84 -27 180 -6 36 -13 75 -15 87
-2 11 -6 30 -10 42 -3 11 -9 33 -11 48 -14 78 -82 291 -135 427 -79 197 -240
498 -357 661 -56 79 -145 200 -152 205 -3 3 -17 21 -31 40 -15 19 -37 46 -49
60 -12 14 -47 54 -78 90 -309 353 -645 533 -984 525 -155 -4 -228 -17 -367
-67 -205 -73 -385 -208 -529 -397 -62 -81 -147 -261 -177 -371 -83 -313 -29
-638 150 -904 110 -166 220 -265 445 -405 229 -142 374 -271 505 -447 294
-394 376 -901 224 -1374 -34 -106 -143 -318 -212 -413 -112 -154 -264 -298
-422 -400 -89 -57 -173 -99 -184 -93 -5 3 -12 36 -16 73 -7 66 -8 76 -19 138
-3 17 -8 50 -11 75 -3 25 -7 54 -9 65 -4 22 -13 79 -20 135 -3 19 -12 85 -21
145 -9 61 -19 124 -21 140 -2 17 -6 46 -9 65 -3 19 -8 49 -10 65 -2 17 -8 59
-14 95 -6 36 -13 88 -16 115 -7 51 -12 84 -19 120 -25 129 -23 234 5 311 28
75 119 169 207 213 34 17 62 32 62 34 0 1 -165 2 -367 1 -372 -1 -435 -4 -518
-28 -5 -2 -23 -6 -40 -11 -126 -33 -205 -130 -231 -282 -2 -15 -9 -53 -14 -83
-5 -30 -12 -68 -14 -85 -5 -27 -62 -303 -86 -415 -10 -47 -57 -250 -65 -285
-3 -11 -8 -35 -11 -54 -3 -19 -10 -46 -16 -60 -5 -14 -9 -27 -8 -29 1 -1 -1
-15 -4 -30 -4 -15 -8 -36 -11 -47 -52 -247 -68 -321 -71 -324 -4 -4 -77 33
-99 51 -5 4 -46 34 -91 67 -104 77 -242 223 -322 338 -122 180 -218 407 -247
588 -3 22 -10 63 -15 90 -13 75 -10 319 5 416 64 422 276 779 594 1000 36 26
118 75 181 111 325 180 528 413 623 714 36 114 39 134 42 295 3 124 0 161 -20
250 -30 134 -54 203 -110 303 -167 304 -457 514 -795 576 -59 11 -264 22 -272
15z"/>
</g>
</svg>
